<svg class="svg-icon" style="width: 1em; height: 1em;vertical-align: middle;fill: currentColor;overflow: hidden;" viewBox="0 0 1024 1024" version="1.1" xmlns="http://www.w3.org/2000/svg"><path d="M679.767885 192.016078A42.661565 42.661565 0 0 0 708.991057 151.060976V42.7006A42.661565 42.661565 0 0 0 652.891099 2.172114l-255.969391 85.32313a47.567645 47.567645 0 0 0-10.238775 5.546003l-1.706463 1.279847a40.101871 40.101871 0 0 0-7.252466 7.465774l-1.066539 1.279847a39.035332 39.035332 0 0 0-5.332696 10.238776v2.346386A43.728104 43.728104 0 0 0 367.698536 128.02373v594.48891a159.980869 159.980869 0 1 0 85.32313 141.423088v-597.261911zM293.040797 938.593467a74.657739 74.657739 0 1 1 74.657739-74.657739A74.657739 74.657739 0 0 1 293.040797 938.593467zM858.306534 554.639381h-85.32313v-85.32313a31.996174 31.996174 0 0 0-63.992347 0v85.32313h-85.32313a31.996174 31.996174 0 0 0 0 63.992348h85.32313v85.32313a31.996174 31.996174 0 0 0 63.992347 0v-85.32313h85.32313a31.996174 31.996174 0 0 0 0-63.992348z" fill="#3A3A3A" /></svg>